<?xml version="1.0" encoding="UTF-8" standalone="no"?>
<!-- Generator: Adobe Illustrator 12.0.0, SVG Export Plug-In . SVG Version: 6.00 Build 51448)  -->

<svg
   xmlns:dc="http://purl.org/dc/elements/1.1/"
   xmlns:cc="http://creativecommons.org/ns#"
   xmlns:rdf="http://www.w3.org/1999/02/22-rdf-syntax-ns#"
   xmlns:svg="http://www.w3.org/2000/svg"
   xmlns="http://www.w3.org/2000/svg"
   xmlns:sodipodi="http://sodipodi.sourceforge.net/DTD/sodipodi-0.dtd"
   xmlns:inkscape="http://www.inkscape.org/namespaces/inkscape"
   version="1.1"
   id="Layer_1"
   width="300"
   height="273.98511"
   viewBox="0 0 300 273.98511"
   overflow="visible"
   enable-background="new 0 0 400 371.75"
   xml:space="preserve"
   inkscape:version="0.47 r22583"
   sodipodi:docname="Scoutisme_Français.svg"
   style="overflow:visible"><metadata
   id="metadata7458"><rdf:RDF><cc:Work
       rdf:about=""><dc:format>image/svg+xml</dc:format><dc:type
         rdf:resource="http://purl.org/dc/dcmitype/StillImage" /></cc:Work></rdf:RDF></metadata><defs
   id="defs7456"><inkscape:perspective
   sodipodi:type="inkscape:persp3d"
   inkscape:vp_x="0 : 185.875 : 1"
   inkscape:vp_y="0 : 1000 : 0"
   inkscape:vp_z="400 : 185.875 : 1"
   inkscape:persp3d-origin="200 : 123.91667 : 1"
   id="perspective7460" />
	
	
	
	
	
</defs><sodipodi:namedview
   pagecolor="#ffffff"
   bordercolor="#666666"
   borderopacity="1"
   objecttolerance="10"
   gridtolerance="10"
   guidetolerance="10"
   inkscape:pageopacity="0"
   inkscape:pageshadow="2"
   inkscape:window-width="1017"
   inkscape:window-height="750"
   id="namedview7454"
   showgrid="false"
   inkscape:zoom="0.63483524"
   inkscape:cx="175.227"
   inkscape:cy="160.03199"
   inkscape:window-x="0"
   inkscape:window-y="0"
   inkscape:window-maximized="0"
   inkscape:current-layer="Layer_1" />

<g
   id="g7467"
   transform="matrix(0.8560349,0,0,0.8560349,-21.206554,-22.123366)"><path
     d="m 218.771,189.063 7.067,-0.104 c 16.272,-24.051 43.896,-39.878 75.301,-39.878 30.691,0 57.743,15.212 74.087,38.337 -1.356,-20.865 -6.424,-40.702 -14.489,-58.894 -8.636,-4.111 -18.271,-6.475 -28.336,-6.475 -16.844,0 -32.262,6.269 -43.824,16.547 l -0.143,-2.775 c 11.777,-13.978 18.914,-32.17 18.914,-51.699 0,-9.354 -1.713,-18.294 -4.711,-26.621 -23.625,-16.856 -51.604,-28.06 -82.01,-31.657 15.202,23.332 24.269,50.672 24.269,79.861 0,30.732 -9.636,60.437 -26.125,83.358"
     id="path7444"
     style="fill:#fd1813" /><path
     d="m 98.79,149.08 c 31.405,0 59.027,15.828 75.229,39.878 l 7.138,0.104 c -16.56,-22.921 -26.052,-52.626 -26.052,-83.357 0,-29.189 8.993,-56.529 24.196,-79.861 -30.406,3.597 -58.457,14.8 -82.082,31.657 -2.927,8.326 -4.639,17.267 -4.639,26.621 0,19.529 7.065,37.721 18.843,51.597 l -0.072,2.878 C 99.717,128.318 84.372,122.05 67.527,122.05 c -10.135,0 -19.699,2.364 -28.336,6.475 -8.065,18.192 -13.133,38.029 -14.418,58.894 C 41.048,164.292 68.099,149.08 98.79,149.08"
     id="path7446"
     style="fill:#8aa2ce" /><path
     d="m 193.434,253.402 c 0,-4.829 -0.5,-7.604 -0.785,-9.764 -4.854,-31.245 -32.048,-55.092 -64.809,-55.092 -36.259,0 -65.594,29.089 -65.594,64.959 0,25.9 15.417,48.409 37.614,58.894 -7.494,2.879 -15.702,4.522 -24.195,4.522 -1.999,0 -3.927,-0.104 -5.853,-0.308 10.42,11.203 22.411,21.07 35.473,29.292 49.178,-2.876 88.149,-43.064 88.149,-92.503"
     id="path7448"
     style="fill:#8aa2ce" /><path
     d="m 329.477,316.614 c -1.857,0.204 -3.713,0.308 -5.64,0.308 -8.494,0 -16.702,-1.644 -24.197,-4.522 22.198,-10.484 37.687,-32.993 37.687,-58.894 0,-35.87 -29.406,-64.959 -65.594,-64.959 -32.833,0 -60.026,23.847 -64.809,55.092 -0.428,2.159 -0.856,4.935 -0.856,9.764 0,49.336 38.899,89.627 88.006,92.504 13.061,-8.222 24.981,-18.09 35.403,-29.293"
     id="path7450"
     style="fill:#fd1813" /><path
     d="m 229.764,253.917 v 50.261 h 14.49 V 254.02 h 32.618 v -13.259 l -32.618,0.103 v -3.597 l 32.689,-0.104 v -14.39 h -32.689 c -7.995,0 -14.49,6.476 -14.49,14.39 v 3.598 h -58.67 v -1.85 c 0,-8.942 -7.353,-16.138 -16.346,-16.138 -8.993,0 -16.345,7.195 -16.345,16.138 v 15.829 c 0,8.94 7.352,16.136 16.345,16.136 0.643,0 1.214,0 1.856,-0.103 v 19.322 h -3.641 v -16.854 h -14.561 v 15.106 c 0,8.943 7.28,16.241 16.345,16.241 8.993,0 16.346,-7.298 16.346,-16.241 V 272.52 c 0,-8.839 -7.353,-16.135 -16.346,-16.135 -0.642,0 -1.213,0 -1.855,0.103 v -19.324 h 3.641 v 16.856 l 73.231,-0.103 z"
     id="path7452"
     style="fill:#ffffff" /></g>
</svg>