<?xml version="1.0" encoding="utf-8"?>
<!-- Generator: Adobe Illustrator 25.0.0, SVG Export Plug-In . SVG Version: 6.00 Build 0)  -->
<svg version="1.1" id="Logo" xmlns="http://www.w3.org/2000/svg" xmlns:xlink="http://www.w3.org/1999/xlink" x="0px" y="0px"
	 viewBox="0 0 500 155.1" style="enable-background:new 0 0 500 155.1;" xml:space="preserve">
<style type="text/css">
	.st0{fill:#00384F;}
</style>
<path id="LOGO" class="st0" d="M236.7,154.4H0V1.5h236.7V154.4z M84.5,65.8c4.8,4.6,9.4,8.1,11.6,9.6c4.6-6,19.1-23.6,19.8-24.4
	l1.1-1.3l22,23.7l0.4,0.3l9-8.7l-16.2-20.6L117,27.9l-7.4,7.4L84.5,65.8z M117,77.6l-9.6,10.3c2,1.9,6.4,6.6,9.5,9.1
	c2-1.8,6.6-6.7,9.3-9.8L117,77.6z M111.1,117.9L73.8,81l-32.5,37.2l10.9,9.1l21.5-23.7l26.3,24.5L111.1,117.9z M183.9,127.4
	c2-1.4,6.9-4.9,11.5-8.5c-2.6-3.1-9.9-11.8-15.3-17.5c-4-4.2-15.6-17-19.1-20.9c-9.2,8.6-31.8,31.3-37.7,36.8
	c3.2,3.7,7.6,8.5,9.6,10.7c6.8-6.3,25.1-25.4,25.3-25.6l1.1-1c0,0,5.9,6.3,8,8.5C174.2,117.3,178.4,121.9,183.9,127.4"/>
<path id="SCOUTS_GUIDES" class="st0" d="M261.6,35.9l8.7-5.1c1.6,3.7,4.3,6.1,9.3,6.1c4.8,0,6-1.9,6-3.6c0-2.7-2.5-3.8-9.2-5.6
	c-6.6-1.8-13-5-13-13.5s7.2-13.5,14.8-13.5c7.3,0,13,3.5,16.2,10l-8.5,5c-1.5-3.2-3.6-5.1-7.6-5.1c-3.2,0-4.7,1.6-4.7,3.3
	c0,2,1.1,3.4,8,5.5c6.7,2,14.2,4.4,14.2,13.7c0,8.5-6.8,13.6-16.4,13.6C270,46.8,264.1,42.4,261.6,35.9 M298.6,23.8
	c0,13,9.7,23,23,23c8.1,0,15.2-4,19-10.2l-8.7-5.1c-1.9,3.4-5.8,5.4-10.2,5.4c-7.8,0-12.9-5.2-12.9-13.1s5.1-13.1,12.9-13.1
	c4.5,0,8.3,2,10.2,5.4l8.7-5.1c-3.9-6.3-10.9-10.2-19-10.2C308.3,0.8,298.6,10.8,298.6,23.8 M342.8,23.8c0,13,10.3,23,23,23
	s23-10,23-23s-10.3-23-23-23C353.1,0.8,342.8,10.8,342.8,23.8 M378.7,23.8c0,7.9-5.7,13.1-12.9,13.1c-7.2,0-12.9-5.2-12.9-13.1
	s5.7-13.1,12.9-13.1S378.7,15.9,378.7,23.8 M393.8,31.6c0,9.5,7.3,15.2,17.1,15.2c9.7,0,17.1-5.7,17.1-15.2v-30h-10.1v29.2
	c0,3.3-1.6,6.2-7,6.2s-7-2.8-7-6.2V1.7h-10.1V31.6 M464.9,1.7H432v9.7h11.4v34.5h10.1V11.4h11.4V1.7z M465.8,35.9
	c2.5,6.5,8.4,10.9,17.7,10.9c9.6,0,16.4-5.1,16.4-13.6c0-9.4-7.5-11.7-14.2-13.7c-6.9-2.1-8-3.5-8-5.5c0-1.8,1.6-3.3,4.7-3.3
	c4,0,6.1,2,7.6,5.1l8.5-5c-3.2-6.5-8.9-10-16.2-10c-7.6,0-14.8,4.9-14.8,13.5c0,8.5,6.4,11.6,13,13.5c6.6,1.8,9.2,2.9,9.2,5.6
	c0,1.7-1.2,3.6-6,3.6c-5,0-7.7-2.5-9.3-6.1L465.8,35.9 M307.6,84.3h-22.2v8.8h11.8c-1.6,4.2-5.4,6.8-11.3,6.8
	c-8.6,0-13.9-5.5-13.9-13c0-7.8,5.6-13.3,13-13.3c5,0,9,2.3,10.8,5.2l8.6-4.9c-3.7-5.9-10.9-10.1-19.3-10.1
	c-13,0-23.2,10.2-23.2,23.1c0,12.7,10,22.9,23.9,22.9c12.4,0,21.8-8.2,21.8-21.7L307.6,84.3L307.6,84.3z M316.3,94.6
	c0,9.5,7.3,15.2,17.1,15.2c9.7,0,17.1-5.7,17.1-15.2V64.7h-10.1v29.1c0,3.3-1.6,6.2-6.9,6.2c-5.4,0-6.9-2.8-6.9-6.2V64.7h-10.1v29.9
	 M371.4,64.7h-10.1v44.2h10.1V64.7z M421.7,86.8c0-12.5-9.3-22.1-21.5-22.1h-17.7v44.2h17.7C412.4,108.9,421.7,99.3,421.7,86.8
	 M412,86.8c0,7.6-4.8,12.4-11.7,12.4h-7.6V74.4h7.6C407.2,74.4,412,79.2,412,86.8 M441.1,99.2v-7.8h15.8v-9.6h-15.8v-7.3h17.4v-9.7
	H431V109h27.8v-9.7L441.1,99.2L441.1,99.2z M465.9,98.8c2.5,6.5,8.4,10.9,17.7,10.9c9.6,0,16.4-5.1,16.4-13.6
	c0-9.3-7.5-11.7-14.2-13.7c-6.9-2.1-8-3.5-8-5.5c0-1.8,1.6-3.3,4.7-3.3c4,0,6.1,2,7.6,5.1l8.5-5c-3.2-6.5-8.9-10-16.2-10
	c-7.6,0-14.8,4.9-14.8,13.5c0,8.5,6.4,11.6,13,13.5c6.6,1.8,9.2,2.9,9.2,5.6c0,1.7-1.2,3.6-6,3.6c-5,0-7.7-2.5-9.3-6.1L465.9,98.8"
	/>
<path id="DE_FRANCE" class="st0" d="M286.4,141c0,7.5-5.4,13.6-12.9,13.6H263v-27.1h10.6C281.1,127.5,286.4,133.5,286.4,141
	 M283,141c0-5.7-3.8-10.2-9.4-10.2h-7v20.3h7C279.2,151.2,283,146.8,283,141 M294.4,151.2v-8.6h11.4v-3.4h-11.4v-8.3h12.4v-3.4h-16
	v27.1H307v-3.4L294.4,151.2L294.4,151.2z M336.7,130.9v-3.4h-15.6v27.1h3.6v-11.5h11.5v-3.4h-11.5v-8.8L336.7,130.9L336.7,130.9z
	 M351.1,144.2h-6.4v10.4h-3.6v-27.1H352c4.7,0,8.5,3.8,8.5,8.4c0,3.6-2.4,6.7-5.6,7.9l6.4,10.9h-4L351.1,144.2z M344.7,141h7.2
	c2.7,0,4.8-2.3,4.8-5.1s-2.2-5-4.8-5h-7.2V141z M380.5,148.5h-12.2l-2.2,6.1h-3.8l10.1-27.1h4.1l10.1,27.1h-3.8L380.5,148.5z
	 M379.2,145.2l-4.9-13.4l-4.8,13.4H379.2z M406.6,127.5v20.2l-14-20.2h-2.9v27.1h3.6v-20.3l14,20.3h2.9v-27.1H406.6z M414.6,141
	c0,7.8,5.9,14.1,14.2,14.1c5,0,9.5-2.6,11.7-6.6l-3.1-1.8c-1.6,2.9-4.8,4.9-8.6,4.9c-6.4,0-10.6-4.6-10.6-10.5
	c0-6,4.3-10.6,10.6-10.6c3.7,0,7,1.9,8.6,4.9l3.1-1.8c-2.3-4-6.7-6.6-11.7-6.6C420.5,127,414.6,133.2,414.6,141 M448.2,151.2v-8.6
	h11.4v-3.4h-11.4v-8.3h12.4v-3.4h-16v27.1h16.2v-3.4L448.2,151.2L448.2,151.2z"/>
<polygon id="Croix_Potencée" class="st0" points="480.1,151.5 480.1,154.6 492.1,154.6 492.1,151.5 487.6,151.5 487.6,142.6 
	496.6,142.6 496.6,147 499.7,147 499.7,135 496.6,135 496.6,139.5 487.6,139.5 487.6,130.5 492.1,130.5 492.1,127.4 480.1,127.4 
	480.1,130.5 484.6,130.5 484.6,139.5 475.6,139.5 475.6,135 472.6,135 472.6,147 475.6,147 475.6,142.6 484.6,142.6 484.6,151.5 "/>
</svg>
